# xmcd
#
# Track frame offsets:
#	150
#	15557
#	29877
#	42685
#	59230
#	74317
#	90137
#	105970
#	120965
#	135680
#
# Disc length: 1983
#
# Revision: 1
# Processed by: cddbd v1.5.1PL0 Copyright (c) Steve Scherf et al.
# Submitted via: dBpowerAMP V4.0
# Normalized: r0:TDELIM( - )
#
DISCID=8507bd0a
DTITLE=Various Artist - Hot COuntry For The 90's
DYEAR=1998
DGENRE=Country
TTITLE0=Billy Ray Cyrus - Achy Breaky Heart
TTITLE1=The Kentucky Headhunters - Oh Lonesome Me
TTITLE2=Kathy Mattea - Lonesome Standard Time
TTITLE3=Jamie Warren - One Step Back
TTITLE4=Terri Clark - Is Forth Worth Worth It
TTITLE5=Duane Steele - Stuck On Your Love
TTITLE6=Toby Kieth - Should've Been A Cowboy
TTITLE7=John and Audrey Wiggins - Has Anybody Seen Amy
TTITLE8=Ronna Reeves - The More I Learn (The Less I Understand About Love)
TTITLE9=Sammy Kershaw - Cadillac Style
EXTD=
EXTT0=
EXTT1=
EXTT2=
EXTT3=
EXTT4=
EXTT5=
EXTT6=
EXTT7=
EXTT8=
EXTT9=
PLAYORDER=
